<?xml version="1.0" encoding="utf-8"?><!-- Uploaded to: SVG Repo, www.svgrepo.com, Generator: SVG Repo Mixer Tools -->
<svg width="800px" height="800px" viewBox="0 0 24 24" xmlns="http://www.w3.org/2000/svg" id="present-close" class="icon glyph"><path d="M21,3H3A1,1,0,0,0,3,5V16a2,2,0,0,0,2,2H19a2,2,0,0,0,2-2V5a1,1,0,0,0,0-2Zm-5.79,9.29a1,1,0,0,1,0,1.42,1,1,0,0,1-1.42,0L12,11.92l-1.79,1.79a1,1,0,0,1-1.42,0,1,1,0,0,1,0-1.42l1.79-1.79L8.79,8.71a1,1,0,1,1,1.42-1.42L12,9.08l1.79-1.79a1,1,0,1,1,1.42,1.42L13.42,10.5ZM10.08,19l-1.3,1.62A1,1,0,0,1,8,21a1,1,0,0,1-.62-.22,1,1,0,0,1-.16-1.4l.3-.38Zm6.54,1.78A1,1,0,0,1,16,21a1,1,0,0,1-.78-.38L13.92,19h2.56l.3.38A1,1,0,0,1,16.62,20.78Z" style="fill:#231f20"></path></svg>